<mxfile host="Electron" agent="Mozilla/5.0 (Windows NT 10.0; Win64; x64) AppleWebKit/537.36 (KHTML, like Gecko) draw.io/28.2.8 Chrome/140.0.7339.240 Electron/38.4.0 Safari/537.36" version="28.2.8" pages="3">
  <diagram name="fc1" id="cGlz_I6CfmXMJs-cQSHQ">
    <mxGraphModel dx="874" dy="682" grid="1" gridSize="10" guides="1" tooltips="1" connect="1" arrows="1" fold="1" page="1" pageScale="1" pageWidth="1169" pageHeight="827" math="0" shadow="0">
      <root>
        <mxCell id="q_WlRzKrirI5KPxBoJkh-0" />
        <mxCell id="q_WlRzKrirI5KPxBoJkh-1" parent="q_WlRzKrirI5KPxBoJkh-0" />
        <mxCell id="q_WlRzKrirI5KPxBoJkh-2" style="edgeStyle=orthogonalEdgeStyle;rounded=0;orthogonalLoop=1;jettySize=auto;html=1;exitX=0.5;exitY=1;exitDx=0;exitDy=0;exitPerimeter=0;entryX=0.5;entryY=0;entryDx=0;entryDy=0;endArrow=block;endFill=1;" parent="q_WlRzKrirI5KPxBoJkh-1" source="q_WlRzKrirI5KPxBoJkh-3" target="q_WlRzKrirI5KPxBoJkh-5" edge="1">
          <mxGeometry relative="1" as="geometry" />
        </mxCell>
        <mxCell id="q_WlRzKrirI5KPxBoJkh-3" value="start" style="strokeWidth=1;html=1;shape=mxgraph.flowchart.terminator;whiteSpace=wrap;" parent="q_WlRzKrirI5KPxBoJkh-1" vertex="1">
          <mxGeometry x="110" y="79" width="100" height="40" as="geometry" />
        </mxCell>
        <mxCell id="q_WlRzKrirI5KPxBoJkh-4" style="edgeStyle=orthogonalEdgeStyle;rounded=0;orthogonalLoop=1;jettySize=auto;html=1;exitX=0.5;exitY=1;exitDx=0;exitDy=0;entryX=0.5;entryY=0;entryDx=0;entryDy=0;endArrow=block;endFill=1;" parent="q_WlRzKrirI5KPxBoJkh-1" source="q_WlRzKrirI5KPxBoJkh-5" target="q_WlRzKrirI5KPxBoJkh-7" edge="1">
          <mxGeometry relative="1" as="geometry" />
        </mxCell>
        <mxCell id="q_WlRzKrirI5KPxBoJkh-5" value="initalise&lt;div&gt;variables&lt;/div&gt;" style="shape=hexagon;perimeter=hexagonPerimeter2;whiteSpace=wrap;html=1;fixedSize=1;" parent="q_WlRzKrirI5KPxBoJkh-1" vertex="1">
          <mxGeometry x="100" y="159" width="120" height="60" as="geometry" />
        </mxCell>
        <mxCell id="q_WlRzKrirI5KPxBoJkh-6" style="edgeStyle=orthogonalEdgeStyle;rounded=0;orthogonalLoop=1;jettySize=auto;html=1;exitX=0.5;exitY=1;exitDx=0;exitDy=0;entryX=0.5;entryY=0;entryDx=0;entryDy=0;endArrow=block;endFill=1;" parent="q_WlRzKrirI5KPxBoJkh-1" source="q_WlRzKrirI5KPxBoJkh-7" target="q_WlRzKrirI5KPxBoJkh-10" edge="1">
          <mxGeometry relative="1" as="geometry" />
        </mxCell>
        <mxCell id="q_WlRzKrirI5KPxBoJkh-7" value="get percentage&lt;div&gt;from keyboard&lt;/div&gt;" style="shape=parallelogram;perimeter=parallelogramPerimeter;whiteSpace=wrap;html=1;fixedSize=1;" parent="q_WlRzKrirI5KPxBoJkh-1" vertex="1">
          <mxGeometry x="100" y="259" width="120" height="60" as="geometry" />
        </mxCell>
        <mxCell id="q_WlRzKrirI5KPxBoJkh-9" style="edgeStyle=orthogonalEdgeStyle;shape=connector;rounded=0;orthogonalLoop=1;jettySize=auto;html=1;exitX=0.5;exitY=1;exitDx=0;exitDy=0;entryX=0.5;entryY=0;entryDx=0;entryDy=0;strokeColor=default;align=center;verticalAlign=middle;fontFamily=Helvetica;fontSize=11;fontColor=default;labelBackgroundColor=default;endArrow=block;endFill=1;" parent="q_WlRzKrirI5KPxBoJkh-1" source="q_WlRzKrirI5KPxBoJkh-10" edge="1">
          <mxGeometry relative="1" as="geometry">
            <mxPoint x="160" y="479" as="targetPoint" />
          </mxGeometry>
        </mxCell>
        <mxCell id="J8nw1OHWscnrK27jN7NS-1" style="edgeStyle=orthogonalEdgeStyle;shape=connector;rounded=0;orthogonalLoop=1;jettySize=auto;html=1;exitX=1;exitY=0.5;exitDx=0;exitDy=0;entryX=0;entryY=0.5;entryDx=0;entryDy=0;strokeColor=default;align=center;verticalAlign=middle;fontFamily=Helvetica;fontSize=11;fontColor=default;labelBackgroundColor=default;endArrow=block;endFill=1;" parent="q_WlRzKrirI5KPxBoJkh-1" source="q_WlRzKrirI5KPxBoJkh-10" target="aO7dX8Oa5xOZGyp3q3zJ-0" edge="1">
          <mxGeometry relative="1" as="geometry" />
        </mxCell>
        <mxCell id="q_WlRzKrirI5KPxBoJkh-10" value="is percentage&lt;div&gt;&amp;gt;= 70?&lt;/div&gt;" style="rhombus;whiteSpace=wrap;html=1;" parent="q_WlRzKrirI5KPxBoJkh-1" vertex="1">
          <mxGeometry x="100" y="359" width="120" height="80" as="geometry" />
        </mxCell>
        <mxCell id="q_WlRzKrirI5KPxBoJkh-11" value="display grade" style="shape=parallelogram;perimeter=parallelogramPerimeter;whiteSpace=wrap;html=1;fixedSize=1;" parent="q_WlRzKrirI5KPxBoJkh-1" vertex="1">
          <mxGeometry x="420" y="580" width="120" height="60" as="geometry" />
        </mxCell>
        <mxCell id="q_WlRzKrirI5KPxBoJkh-12" value="end" style="strokeWidth=1;html=1;shape=mxgraph.flowchart.terminator;whiteSpace=wrap;" parent="q_WlRzKrirI5KPxBoJkh-1" vertex="1">
          <mxGeometry x="430" y="680" width="100" height="40" as="geometry" />
        </mxCell>
        <mxCell id="q_WlRzKrirI5KPxBoJkh-13" value="Yes" style="text;html=1;strokeColor=none;fillColor=none;align=left;verticalAlign=middle;whiteSpace=wrap;rounded=0;" parent="q_WlRzKrirI5KPxBoJkh-1" vertex="1">
          <mxGeometry x="160" y="439" width="40" height="20" as="geometry" />
        </mxCell>
        <mxCell id="q_WlRzKrirI5KPxBoJkh-14" value="No" style="text;html=1;strokeColor=none;fillColor=none;align=left;verticalAlign=middle;whiteSpace=wrap;rounded=0;" parent="q_WlRzKrirI5KPxBoJkh-1" vertex="1">
          <mxGeometry x="220" y="379" width="40" height="20" as="geometry" />
        </mxCell>
        <mxCell id="J8nw1OHWscnrK27jN7NS-14" style="edgeStyle=orthogonalEdgeStyle;shape=connector;rounded=0;orthogonalLoop=1;jettySize=auto;html=1;exitX=0.5;exitY=1;exitDx=0;exitDy=0;entryX=0;entryY=0.5;entryDx=0;entryDy=0;strokeColor=default;align=center;verticalAlign=middle;fontFamily=Helvetica;fontSize=11;fontColor=default;labelBackgroundColor=default;endArrow=block;endFill=1;" parent="q_WlRzKrirI5KPxBoJkh-1" source="q_WlRzKrirI5KPxBoJkh-15" target="q_WlRzKrirI5KPxBoJkh-11" edge="1">
          <mxGeometry relative="1" as="geometry">
            <Array as="points">
              <mxPoint x="160" y="610" />
            </Array>
          </mxGeometry>
        </mxCell>
        <mxCell id="q_WlRzKrirI5KPxBoJkh-15" value="set grade to&lt;div&gt;A&lt;/div&gt;" style="rounded=0;whiteSpace=wrap;html=1;" parent="q_WlRzKrirI5KPxBoJkh-1" vertex="1">
          <mxGeometry x="100" y="479" width="120" height="60" as="geometry" />
        </mxCell>
        <mxCell id="q_WlRzKrirI5KPxBoJkh-19" value="No" style="text;html=1;strokeColor=none;fillColor=none;align=left;verticalAlign=middle;whiteSpace=wrap;rounded=0;" parent="q_WlRzKrirI5KPxBoJkh-1" vertex="1">
          <mxGeometry x="700" y="379" width="40" height="20" as="geometry" />
        </mxCell>
        <mxCell id="q_WlRzKrirI5KPxBoJkh-20" value="Yes" style="text;html=1;strokeColor=none;fillColor=none;align=left;verticalAlign=middle;whiteSpace=wrap;rounded=0;" parent="q_WlRzKrirI5KPxBoJkh-1" vertex="1">
          <mxGeometry x="320" y="439" width="40" height="20" as="geometry" />
        </mxCell>
        <mxCell id="q_WlRzKrirI5KPxBoJkh-24" value="No" style="text;html=1;strokeColor=none;fillColor=none;align=left;verticalAlign=middle;whiteSpace=wrap;rounded=0;" parent="q_WlRzKrirI5KPxBoJkh-1" vertex="1">
          <mxGeometry x="380" y="379" width="40" height="20" as="geometry" />
        </mxCell>
        <mxCell id="q_WlRzKrirI5KPxBoJkh-25" value="Yes" style="text;html=1;strokeColor=none;fillColor=none;align=left;verticalAlign=middle;whiteSpace=wrap;rounded=0;" parent="q_WlRzKrirI5KPxBoJkh-1" vertex="1">
          <mxGeometry x="640" y="439" width="40" height="20" as="geometry" />
        </mxCell>
        <mxCell id="q_WlRzKrirI5KPxBoJkh-29" value="No" style="text;html=1;strokeColor=none;fillColor=none;align=left;verticalAlign=middle;whiteSpace=wrap;rounded=0;" parent="q_WlRzKrirI5KPxBoJkh-1" vertex="1">
          <mxGeometry x="540" y="379" width="40" height="20" as="geometry" />
        </mxCell>
        <mxCell id="q_WlRzKrirI5KPxBoJkh-30" value="Yes" style="text;html=1;strokeColor=none;fillColor=none;align=left;verticalAlign=middle;whiteSpace=wrap;rounded=0;" parent="q_WlRzKrirI5KPxBoJkh-1" vertex="1">
          <mxGeometry x="480" y="439" width="40" height="20" as="geometry" />
        </mxCell>
        <mxCell id="J8nw1OHWscnrK27jN7NS-10" style="edgeStyle=orthogonalEdgeStyle;shape=connector;rounded=0;orthogonalLoop=1;jettySize=auto;html=1;exitX=0.5;exitY=1;exitDx=0;exitDy=0;entryX=0.25;entryY=0;entryDx=0;entryDy=0;strokeColor=default;align=center;verticalAlign=middle;fontFamily=Helvetica;fontSize=11;fontColor=default;labelBackgroundColor=default;endArrow=block;endFill=1;" parent="q_WlRzKrirI5KPxBoJkh-1" source="q_WlRzKrirI5KPxBoJkh-31" target="q_WlRzKrirI5KPxBoJkh-11" edge="1">
          <mxGeometry relative="1" as="geometry">
            <Array as="points">
              <mxPoint x="320" y="560" />
              <mxPoint x="450" y="560" />
            </Array>
          </mxGeometry>
        </mxCell>
        <mxCell id="q_WlRzKrirI5KPxBoJkh-31" value="set grade to&lt;div&gt;B&lt;/div&gt;" style="rounded=0;whiteSpace=wrap;html=1;" parent="q_WlRzKrirI5KPxBoJkh-1" vertex="1">
          <mxGeometry x="260" y="479" width="120" height="60" as="geometry" />
        </mxCell>
        <mxCell id="J8nw1OHWscnrK27jN7NS-12" style="edgeStyle=orthogonalEdgeStyle;shape=connector;rounded=0;orthogonalLoop=1;jettySize=auto;html=1;exitX=0.5;exitY=1;exitDx=0;exitDy=0;entryX=0.75;entryY=0;entryDx=0;entryDy=0;strokeColor=default;align=center;verticalAlign=middle;fontFamily=Helvetica;fontSize=11;fontColor=default;labelBackgroundColor=default;endArrow=block;endFill=1;" parent="q_WlRzKrirI5KPxBoJkh-1" source="q_WlRzKrirI5KPxBoJkh-32" target="q_WlRzKrirI5KPxBoJkh-11" edge="1">
          <mxGeometry relative="1" as="geometry">
            <Array as="points">
              <mxPoint x="640" y="560" />
              <mxPoint x="510" y="560" />
            </Array>
          </mxGeometry>
        </mxCell>
        <mxCell id="q_WlRzKrirI5KPxBoJkh-32" value="set grade to&lt;div&gt;D&lt;/div&gt;" style="rounded=0;whiteSpace=wrap;html=1;" parent="q_WlRzKrirI5KPxBoJkh-1" vertex="1">
          <mxGeometry x="580" y="479" width="120" height="60" as="geometry" />
        </mxCell>
        <mxCell id="J8nw1OHWscnrK27jN7NS-11" style="edgeStyle=orthogonalEdgeStyle;shape=connector;rounded=0;orthogonalLoop=1;jettySize=auto;html=1;exitX=0.5;exitY=1;exitDx=0;exitDy=0;entryX=0.5;entryY=0;entryDx=0;entryDy=0;strokeColor=default;align=center;verticalAlign=middle;fontFamily=Helvetica;fontSize=11;fontColor=default;labelBackgroundColor=default;endArrow=block;endFill=1;" parent="q_WlRzKrirI5KPxBoJkh-1" source="q_WlRzKrirI5KPxBoJkh-33" target="q_WlRzKrirI5KPxBoJkh-11" edge="1">
          <mxGeometry relative="1" as="geometry" />
        </mxCell>
        <mxCell id="q_WlRzKrirI5KPxBoJkh-33" value="set grade to&lt;div&gt;C&lt;/div&gt;" style="rounded=0;whiteSpace=wrap;html=1;" parent="q_WlRzKrirI5KPxBoJkh-1" vertex="1">
          <mxGeometry x="420" y="479" width="120" height="60" as="geometry" />
        </mxCell>
        <mxCell id="q_WlRzKrirI5KPxBoJkh-36" style="edgeStyle=orthogonalEdgeStyle;shape=connector;rounded=0;orthogonalLoop=1;jettySize=auto;html=1;exitX=0.5;exitY=1;exitDx=0;exitDy=0;entryX=0.5;entryY=0;entryDx=0;entryDy=0;entryPerimeter=0;strokeColor=default;align=center;verticalAlign=middle;fontFamily=Helvetica;fontSize=11;fontColor=default;labelBackgroundColor=default;endArrow=block;endFill=1;" parent="q_WlRzKrirI5KPxBoJkh-1" source="q_WlRzKrirI5KPxBoJkh-11" target="q_WlRzKrirI5KPxBoJkh-12" edge="1">
          <mxGeometry relative="1" as="geometry" />
        </mxCell>
        <mxCell id="J8nw1OHWscnrK27jN7NS-2" style="edgeStyle=orthogonalEdgeStyle;shape=connector;rounded=0;orthogonalLoop=1;jettySize=auto;html=1;exitX=1;exitY=0.5;exitDx=0;exitDy=0;entryX=0;entryY=0.5;entryDx=0;entryDy=0;strokeColor=default;align=center;verticalAlign=middle;fontFamily=Helvetica;fontSize=11;fontColor=default;labelBackgroundColor=default;endArrow=block;endFill=1;" parent="q_WlRzKrirI5KPxBoJkh-1" source="aO7dX8Oa5xOZGyp3q3zJ-0" target="aO7dX8Oa5xOZGyp3q3zJ-1" edge="1">
          <mxGeometry relative="1" as="geometry" />
        </mxCell>
        <mxCell id="J8nw1OHWscnrK27jN7NS-4" style="edgeStyle=orthogonalEdgeStyle;shape=connector;rounded=0;orthogonalLoop=1;jettySize=auto;html=1;exitX=0.5;exitY=1;exitDx=0;exitDy=0;entryX=0.5;entryY=0;entryDx=0;entryDy=0;strokeColor=default;align=center;verticalAlign=middle;fontFamily=Helvetica;fontSize=11;fontColor=default;labelBackgroundColor=default;endArrow=block;endFill=1;" parent="q_WlRzKrirI5KPxBoJkh-1" source="aO7dX8Oa5xOZGyp3q3zJ-0" target="q_WlRzKrirI5KPxBoJkh-31" edge="1">
          <mxGeometry relative="1" as="geometry" />
        </mxCell>
        <mxCell id="aO7dX8Oa5xOZGyp3q3zJ-0" value="is percentage&lt;div&gt;&amp;gt;= 60?&lt;/div&gt;" style="rhombus;whiteSpace=wrap;html=1;" parent="q_WlRzKrirI5KPxBoJkh-1" vertex="1">
          <mxGeometry x="260" y="359" width="120" height="80" as="geometry" />
        </mxCell>
        <mxCell id="J8nw1OHWscnrK27jN7NS-3" style="edgeStyle=orthogonalEdgeStyle;shape=connector;rounded=0;orthogonalLoop=1;jettySize=auto;html=1;exitX=1;exitY=0.5;exitDx=0;exitDy=0;entryX=0;entryY=0.5;entryDx=0;entryDy=0;strokeColor=default;align=center;verticalAlign=middle;fontFamily=Helvetica;fontSize=11;fontColor=default;labelBackgroundColor=default;endArrow=block;endFill=1;" parent="q_WlRzKrirI5KPxBoJkh-1" source="aO7dX8Oa5xOZGyp3q3zJ-1" target="aO7dX8Oa5xOZGyp3q3zJ-2" edge="1">
          <mxGeometry relative="1" as="geometry" />
        </mxCell>
        <mxCell id="J8nw1OHWscnrK27jN7NS-5" style="edgeStyle=orthogonalEdgeStyle;shape=connector;rounded=0;orthogonalLoop=1;jettySize=auto;html=1;exitX=0.5;exitY=1;exitDx=0;exitDy=0;entryX=0.5;entryY=0;entryDx=0;entryDy=0;strokeColor=default;align=center;verticalAlign=middle;fontFamily=Helvetica;fontSize=11;fontColor=default;labelBackgroundColor=default;endArrow=block;endFill=1;" parent="q_WlRzKrirI5KPxBoJkh-1" source="aO7dX8Oa5xOZGyp3q3zJ-1" target="q_WlRzKrirI5KPxBoJkh-33" edge="1">
          <mxGeometry relative="1" as="geometry" />
        </mxCell>
        <mxCell id="aO7dX8Oa5xOZGyp3q3zJ-1" value="is percentage&lt;div&gt;&amp;gt;= 50?&lt;/div&gt;" style="rhombus;whiteSpace=wrap;html=1;" parent="q_WlRzKrirI5KPxBoJkh-1" vertex="1">
          <mxGeometry x="420" y="359" width="120" height="80" as="geometry" />
        </mxCell>
        <mxCell id="J8nw1OHWscnrK27jN7NS-6" style="edgeStyle=orthogonalEdgeStyle;shape=connector;rounded=0;orthogonalLoop=1;jettySize=auto;html=1;exitX=0.5;exitY=1;exitDx=0;exitDy=0;entryX=0.5;entryY=0;entryDx=0;entryDy=0;strokeColor=default;align=center;verticalAlign=middle;fontFamily=Helvetica;fontSize=11;fontColor=default;labelBackgroundColor=default;endArrow=block;endFill=1;" parent="q_WlRzKrirI5KPxBoJkh-1" source="aO7dX8Oa5xOZGyp3q3zJ-2" target="q_WlRzKrirI5KPxBoJkh-32" edge="1">
          <mxGeometry relative="1" as="geometry" />
        </mxCell>
        <mxCell id="J8nw1OHWscnrK27jN7NS-8" style="edgeStyle=orthogonalEdgeStyle;shape=connector;rounded=0;orthogonalLoop=1;jettySize=auto;html=1;exitX=1;exitY=0.5;exitDx=0;exitDy=0;entryX=0.5;entryY=0;entryDx=0;entryDy=0;strokeColor=default;align=center;verticalAlign=middle;fontFamily=Helvetica;fontSize=11;fontColor=default;labelBackgroundColor=default;endArrow=block;endFill=1;" parent="q_WlRzKrirI5KPxBoJkh-1" source="aO7dX8Oa5xOZGyp3q3zJ-2" target="J8nw1OHWscnrK27jN7NS-0" edge="1">
          <mxGeometry relative="1" as="geometry" />
        </mxCell>
        <mxCell id="aO7dX8Oa5xOZGyp3q3zJ-2" value="is percentage&lt;div&gt;&amp;gt;= 40?&lt;/div&gt;" style="rhombus;whiteSpace=wrap;html=1;" parent="q_WlRzKrirI5KPxBoJkh-1" vertex="1">
          <mxGeometry x="580" y="359" width="120" height="80" as="geometry" />
        </mxCell>
        <mxCell id="J8nw1OHWscnrK27jN7NS-17" style="edgeStyle=orthogonalEdgeStyle;shape=connector;rounded=0;orthogonalLoop=1;jettySize=auto;html=1;exitX=0.5;exitY=1;exitDx=0;exitDy=0;entryX=1;entryY=0.5;entryDx=0;entryDy=0;strokeColor=default;align=center;verticalAlign=middle;fontFamily=Helvetica;fontSize=11;fontColor=default;labelBackgroundColor=default;endArrow=block;endFill=1;" parent="q_WlRzKrirI5KPxBoJkh-1" source="J8nw1OHWscnrK27jN7NS-0" target="q_WlRzKrirI5KPxBoJkh-11" edge="1">
          <mxGeometry relative="1" as="geometry">
            <Array as="points">
              <mxPoint x="800" y="610" />
            </Array>
          </mxGeometry>
        </mxCell>
        <mxCell id="J8nw1OHWscnrK27jN7NS-0" value="set grade to&lt;div&gt;No Award&lt;/div&gt;" style="rounded=0;whiteSpace=wrap;html=1;" parent="q_WlRzKrirI5KPxBoJkh-1" vertex="1">
          <mxGeometry x="740" y="479" width="120" height="60" as="geometry" />
        </mxCell>
      </root>
    </mxGraphModel>
  </diagram>
  <diagram name="sd2" id="MPOqMp-LcYv_gMs-Yf7B">
    <mxGraphModel dx="1249" dy="974" grid="1" gridSize="10" guides="1" tooltips="1" connect="1" arrows="1" fold="1" page="1" pageScale="1" pageWidth="1169" pageHeight="827" math="0" shadow="0">
      <root>
        <mxCell id="0" />
        <mxCell id="1" parent="0" />
        <mxCell id="2BwgFsl3VLa_b2nYBKN8-46" style="edgeStyle=orthogonalEdgeStyle;shape=connector;rounded=0;orthogonalLoop=1;jettySize=auto;html=1;exitX=0.5;exitY=1;exitDx=0;exitDy=0;labelBackgroundColor=default;strokeColor=default;fontFamily=Helvetica;fontSize=11;fontColor=default;endArrow=none;endFill=0;" parent="1" source="2BwgFsl3VLa_b2nYBKN8-1" edge="1">
          <mxGeometry relative="1" as="geometry">
            <mxPoint x="420" y="220" as="targetPoint" />
          </mxGeometry>
        </mxCell>
        <mxCell id="2BwgFsl3VLa_b2nYBKN8-1" value="SQA Result" style="rounded=0;whiteSpace=wrap;html=1;fillColor=none;" parent="1" vertex="1">
          <mxGeometry x="360" y="140" width="120" height="60" as="geometry" />
        </mxCell>
        <mxCell id="2BwgFsl3VLa_b2nYBKN8-25" style="edgeStyle=orthogonalEdgeStyle;rounded=0;orthogonalLoop=1;jettySize=auto;html=1;exitX=0.5;exitY=0;exitDx=0;exitDy=0;endArrow=none;endFill=0;" parent="1" source="2BwgFsl3VLa_b2nYBKN8-2" edge="1">
          <mxGeometry relative="1" as="geometry">
            <mxPoint x="180" y="220" as="targetPoint" />
          </mxGeometry>
        </mxCell>
        <mxCell id="2BwgFsl3VLa_b2nYBKN8-2" value="Initialise&lt;div&gt;variables&lt;/div&gt;" style="rounded=0;whiteSpace=wrap;html=1;fillColor=none;" parent="1" vertex="1">
          <mxGeometry x="120" y="240" width="120" height="60" as="geometry" />
        </mxCell>
        <mxCell id="2BwgFsl3VLa_b2nYBKN8-23" value="" style="endArrow=none;html=1;rounded=0;" parent="1" edge="1">
          <mxGeometry width="50" height="50" relative="1" as="geometry">
            <mxPoint x="180" y="220" as="sourcePoint" />
            <mxPoint x="660" y="220" as="targetPoint" />
          </mxGeometry>
        </mxCell>
        <mxCell id="PToGuFZ58IsCTM8ixenj-1" style="edgeStyle=none;shape=connector;rounded=0;orthogonalLoop=1;jettySize=auto;html=1;exitX=0.5;exitY=0;exitDx=0;exitDy=0;entryX=0.375;entryY=1;entryDx=0;entryDy=0;labelBackgroundColor=default;strokeColor=default;fontFamily=Helvetica;fontSize=11;fontColor=default;endArrow=none;endFill=0;" parent="1" source="PToGuFZ58IsCTM8ixenj-2" target="PToGuFZ58IsCTM8ixenj-4" edge="1">
          <mxGeometry relative="1" as="geometry" />
        </mxCell>
        <mxCell id="PToGuFZ58IsCTM8ixenj-2" value="Set grade to&lt;div&gt;&quot;A&quot;&lt;/div&gt;" style="rounded=0;whiteSpace=wrap;html=1;fillColor=none;" parent="1" vertex="1">
          <mxGeometry x="360" y="340" width="120" height="60" as="geometry" />
        </mxCell>
        <mxCell id="PToGuFZ58IsCTM8ixenj-3" value="Yes" style="text;html=1;strokeColor=none;fillColor=none;align=right;verticalAlign=middle;whiteSpace=wrap;rounded=0;fontSize=11;fontFamily=Helvetica;fontColor=default;spacing=2;spacingRight=3;" parent="1" vertex="1">
          <mxGeometry x="430" y="300" width="30" height="20" as="geometry" />
        </mxCell>
        <mxCell id="PToGuFZ58IsCTM8ixenj-15" style="edgeStyle=orthogonalEdgeStyle;shape=connector;rounded=0;orthogonalLoop=1;jettySize=auto;html=1;exitX=0.5;exitY=0;exitDx=0;exitDy=0;strokeColor=default;align=center;verticalAlign=middle;fontFamily=Helvetica;fontSize=11;fontColor=default;labelBackgroundColor=default;endArrow=none;endFill=0;" parent="1" source="PToGuFZ58IsCTM8ixenj-4" edge="1">
          <mxGeometry relative="1" as="geometry">
            <mxPoint x="500" y="220" as="targetPoint" />
          </mxGeometry>
        </mxCell>
        <mxCell id="PToGuFZ58IsCTM8ixenj-4" value="Is percentage&lt;div&gt;&amp;gt;= 70?&lt;/div&gt;" style="shape=hexagon;perimeter=hexagonPerimeter2;whiteSpace=wrap;html=1;fixedSize=1;fillColor=none;" parent="1" vertex="1">
          <mxGeometry x="440" y="240" width="120" height="60" as="geometry" />
        </mxCell>
        <mxCell id="PToGuFZ58IsCTM8ixenj-5" style="edgeStyle=none;shape=connector;rounded=0;orthogonalLoop=1;jettySize=auto;html=1;exitX=0.5;exitY=0;exitDx=0;exitDy=0;entryX=0.625;entryY=1;entryDx=0;entryDy=0;labelBackgroundColor=default;strokeColor=default;fontFamily=Helvetica;fontSize=11;fontColor=default;endArrow=none;endFill=0;" parent="1" source="PToGuFZ58IsCTM8ixenj-6" target="PToGuFZ58IsCTM8ixenj-4" edge="1">
          <mxGeometry relative="1" as="geometry" />
        </mxCell>
        <mxCell id="PToGuFZ58IsCTM8ixenj-6" value="Is percentage&lt;div&gt;&amp;gt;= 60?&lt;/div&gt;" style="shape=hexagon;perimeter=hexagonPerimeter2;whiteSpace=wrap;html=1;fixedSize=1;fillColor=none;" parent="1" vertex="1">
          <mxGeometry x="520" y="340" width="120" height="60" as="geometry" />
        </mxCell>
        <mxCell id="PToGuFZ58IsCTM8ixenj-7" value="No" style="text;html=1;strokeColor=none;fillColor=none;align=left;verticalAlign=middle;whiteSpace=wrap;rounded=0;fontSize=11;fontFamily=Helvetica;fontColor=default;spacing=2;spacingRight=3;" parent="1" vertex="1">
          <mxGeometry x="540" y="300" width="30" height="20" as="geometry" />
        </mxCell>
        <mxCell id="PToGuFZ58IsCTM8ixenj-8" style="edgeStyle=none;shape=connector;rounded=0;orthogonalLoop=1;jettySize=auto;html=1;exitX=0.5;exitY=0;exitDx=0;exitDy=0;labelBackgroundColor=default;strokeColor=default;fontFamily=Helvetica;fontSize=11;fontColor=default;endArrow=none;endFill=0;entryX=0.375;entryY=1;entryDx=0;entryDy=0;" parent="1" source="PToGuFZ58IsCTM8ixenj-9" target="PToGuFZ58IsCTM8ixenj-6" edge="1">
          <mxGeometry relative="1" as="geometry">
            <mxPoint x="570" y="420" as="targetPoint" />
          </mxGeometry>
        </mxCell>
        <mxCell id="PToGuFZ58IsCTM8ixenj-9" value="Set grade to&lt;div&gt;&quot;B&quot;&lt;/div&gt;" style="rounded=0;whiteSpace=wrap;html=1;fillColor=none;" parent="1" vertex="1">
          <mxGeometry x="440" y="440" width="120" height="60" as="geometry" />
        </mxCell>
        <mxCell id="PToGuFZ58IsCTM8ixenj-10" value="Yes" style="text;html=1;strokeColor=none;fillColor=none;align=right;verticalAlign=middle;whiteSpace=wrap;rounded=0;fontSize=11;fontFamily=Helvetica;fontColor=default;spacing=2;spacingRight=3;" parent="1" vertex="1">
          <mxGeometry x="510" y="400" width="30" height="20" as="geometry" />
        </mxCell>
        <mxCell id="PToGuFZ58IsCTM8ixenj-11" style="edgeStyle=none;shape=connector;rounded=0;orthogonalLoop=1;jettySize=auto;html=1;labelBackgroundColor=default;strokeColor=default;fontFamily=Helvetica;fontSize=11;fontColor=default;endArrow=none;endFill=0;entryX=0.625;entryY=1;entryDx=0;entryDy=0;exitX=0.5;exitY=0;exitDx=0;exitDy=0;" parent="1" source="wdjRkXdS9eBdap-OxiBN-2" target="PToGuFZ58IsCTM8ixenj-6" edge="1">
          <mxGeometry relative="1" as="geometry">
            <mxPoint x="590" y="420" as="targetPoint" />
            <mxPoint x="670" y="440" as="sourcePoint" />
          </mxGeometry>
        </mxCell>
        <mxCell id="PToGuFZ58IsCTM8ixenj-13" value="No" style="text;html=1;strokeColor=none;fillColor=none;align=left;verticalAlign=middle;whiteSpace=wrap;rounded=0;fontSize=11;fontFamily=Helvetica;fontColor=default;spacing=2;spacingRight=3;" parent="1" vertex="1">
          <mxGeometry x="620" y="400" width="30" height="20" as="geometry" />
        </mxCell>
        <mxCell id="01oxkoBT-wRBFzRAXUii-2" style="edgeStyle=orthogonalEdgeStyle;rounded=0;orthogonalLoop=1;jettySize=auto;html=1;exitX=0.5;exitY=0;exitDx=0;exitDy=0;endArrow=none;endFill=0;" parent="1" source="01oxkoBT-wRBFzRAXUii-1" edge="1">
          <mxGeometry relative="1" as="geometry">
            <mxPoint x="340" y="220" as="targetPoint" />
          </mxGeometry>
        </mxCell>
        <mxCell id="01oxkoBT-wRBFzRAXUii-1" value="Get percentage" style="rounded=0;whiteSpace=wrap;html=1;fillColor=none;" parent="1" vertex="1">
          <mxGeometry x="280" y="240" width="120" height="60" as="geometry" />
        </mxCell>
        <mxCell id="wdjRkXdS9eBdap-OxiBN-6" style="rounded=0;orthogonalLoop=1;jettySize=auto;html=1;exitX=0.5;exitY=0;exitDx=0;exitDy=0;entryX=0.625;entryY=1;entryDx=0;entryDy=0;endArrow=none;endFill=0;" parent="1" source="gS3qj8XY2AnT3G1DUPdA-3" target="wdjRkXdS9eBdap-OxiBN-2" edge="1">
          <mxGeometry relative="1" as="geometry">
            <mxPoint x="740" y="560" as="sourcePoint" />
          </mxGeometry>
        </mxCell>
        <mxCell id="wdjRkXdS9eBdap-OxiBN-2" value="Is percentage&lt;div&gt;&amp;gt;= 50?&lt;/div&gt;" style="shape=hexagon;perimeter=hexagonPerimeter2;whiteSpace=wrap;html=1;fixedSize=1;fillColor=none;" parent="1" vertex="1">
          <mxGeometry x="600" y="440" width="120" height="60" as="geometry" />
        </mxCell>
        <mxCell id="wdjRkXdS9eBdap-OxiBN-3" style="edgeStyle=none;shape=connector;rounded=0;orthogonalLoop=1;jettySize=auto;html=1;exitX=0.5;exitY=0;exitDx=0;exitDy=0;labelBackgroundColor=default;strokeColor=default;fontFamily=Helvetica;fontSize=11;fontColor=default;endArrow=none;endFill=0;entryX=0.375;entryY=1;entryDx=0;entryDy=0;" parent="1" source="wdjRkXdS9eBdap-OxiBN-4" target="wdjRkXdS9eBdap-OxiBN-2" edge="1">
          <mxGeometry relative="1" as="geometry">
            <mxPoint x="650" y="520" as="targetPoint" />
          </mxGeometry>
        </mxCell>
        <mxCell id="wdjRkXdS9eBdap-OxiBN-4" value="Set grade to&lt;div&gt;&quot;C&quot;&lt;/div&gt;" style="rounded=0;whiteSpace=wrap;html=1;fillColor=none;" parent="1" vertex="1">
          <mxGeometry x="520" y="540" width="120" height="60" as="geometry" />
        </mxCell>
        <mxCell id="wdjRkXdS9eBdap-OxiBN-5" value="Yes" style="text;html=1;strokeColor=none;fillColor=none;align=right;verticalAlign=middle;whiteSpace=wrap;rounded=0;fontSize=11;fontFamily=Helvetica;fontColor=default;spacing=2;spacingRight=3;" parent="1" vertex="1">
          <mxGeometry x="590" y="500" width="30" height="20" as="geometry" />
        </mxCell>
        <mxCell id="wdjRkXdS9eBdap-OxiBN-9" value="No" style="text;html=1;strokeColor=none;fillColor=none;align=left;verticalAlign=middle;whiteSpace=wrap;rounded=0;fontSize=11;fontFamily=Helvetica;fontColor=default;spacing=2;spacingRight=3;" parent="1" vertex="1">
          <mxGeometry x="700" y="500" width="30" height="20" as="geometry" />
        </mxCell>
        <mxCell id="gS3qj8XY2AnT3G1DUPdA-1" style="rounded=0;orthogonalLoop=1;jettySize=auto;html=1;exitX=0.5;exitY=0;exitDx=0;exitDy=0;entryX=0.625;entryY=1;entryDx=0;entryDy=0;endArrow=none;endFill=0;" parent="1" source="gS3qj8XY2AnT3G1DUPdA-2" target="gS3qj8XY2AnT3G1DUPdA-3" edge="1">
          <mxGeometry relative="1" as="geometry" />
        </mxCell>
        <mxCell id="gS3qj8XY2AnT3G1DUPdA-2" value="Set grade to&lt;div&gt;&quot;No Award&quot;&lt;/div&gt;" style="rounded=0;whiteSpace=wrap;html=1;fillColor=none;" parent="1" vertex="1">
          <mxGeometry x="760" y="640" width="120" height="60" as="geometry" />
        </mxCell>
        <mxCell id="gS3qj8XY2AnT3G1DUPdA-3" value="Is percentage&lt;div&gt;&amp;gt;= 40?&lt;/div&gt;" style="shape=hexagon;perimeter=hexagonPerimeter2;whiteSpace=wrap;html=1;fixedSize=1;fillColor=none;" parent="1" vertex="1">
          <mxGeometry x="680" y="540" width="120" height="60" as="geometry" />
        </mxCell>
        <mxCell id="gS3qj8XY2AnT3G1DUPdA-4" style="edgeStyle=none;shape=connector;rounded=0;orthogonalLoop=1;jettySize=auto;html=1;exitX=0.5;exitY=0;exitDx=0;exitDy=0;labelBackgroundColor=default;strokeColor=default;fontFamily=Helvetica;fontSize=11;fontColor=default;endArrow=none;endFill=0;entryX=0.375;entryY=1;entryDx=0;entryDy=0;" parent="1" source="gS3qj8XY2AnT3G1DUPdA-5" target="gS3qj8XY2AnT3G1DUPdA-3" edge="1">
          <mxGeometry relative="1" as="geometry">
            <mxPoint x="730" y="620" as="targetPoint" />
          </mxGeometry>
        </mxCell>
        <mxCell id="gS3qj8XY2AnT3G1DUPdA-5" value="Set grade to&lt;div&gt;&quot;D&quot;&lt;/div&gt;" style="rounded=0;whiteSpace=wrap;html=1;fillColor=none;" parent="1" vertex="1">
          <mxGeometry x="600" y="640" width="120" height="60" as="geometry" />
        </mxCell>
        <mxCell id="gS3qj8XY2AnT3G1DUPdA-6" value="Yes" style="text;html=1;strokeColor=none;fillColor=none;align=right;verticalAlign=middle;whiteSpace=wrap;rounded=0;fontSize=11;fontFamily=Helvetica;fontColor=default;spacing=2;spacingRight=3;" parent="1" vertex="1">
          <mxGeometry x="670" y="600" width="30" height="20" as="geometry" />
        </mxCell>
        <mxCell id="gS3qj8XY2AnT3G1DUPdA-7" value="No" style="text;html=1;strokeColor=none;fillColor=none;align=left;verticalAlign=middle;whiteSpace=wrap;rounded=0;fontSize=11;fontFamily=Helvetica;fontColor=default;spacing=2;spacingRight=3;" parent="1" vertex="1">
          <mxGeometry x="780" y="600" width="30" height="20" as="geometry" />
        </mxCell>
        <mxCell id="gS3qj8XY2AnT3G1DUPdA-8" style="edgeStyle=orthogonalEdgeStyle;rounded=0;orthogonalLoop=1;jettySize=auto;html=1;exitX=0.5;exitY=0;exitDx=0;exitDy=0;endArrow=none;endFill=0;" parent="1" source="gS3qj8XY2AnT3G1DUPdA-9" edge="1">
          <mxGeometry relative="1" as="geometry">
            <mxPoint x="660" y="220" as="targetPoint" />
          </mxGeometry>
        </mxCell>
        <mxCell id="gS3qj8XY2AnT3G1DUPdA-9" value="Display&lt;div&gt;grade&amp;nbsp;&lt;/div&gt;" style="rounded=0;whiteSpace=wrap;html=1;fillColor=none;" parent="1" vertex="1">
          <mxGeometry x="600" y="240" width="120" height="60" as="geometry" />
        </mxCell>
      </root>
    </mxGraphModel>
  </diagram>
  <diagram id="eiDuwP7BxHOCGEV4mQCg" name="fc1 alt">
    <mxGraphModel dx="786" dy="516" grid="1" gridSize="10" guides="1" tooltips="1" connect="1" arrows="1" fold="1" page="1" pageScale="1" pageWidth="827" pageHeight="1169" math="0" shadow="0">
      <root>
        <mxCell id="0" />
        <mxCell id="1" parent="0" />
        <mxCell id="avIDiTlglhun5P4ctQTW-9" style="edgeStyle=orthogonalEdgeStyle;rounded=0;orthogonalLoop=1;jettySize=auto;html=1;exitX=0.5;exitY=1;exitDx=0;exitDy=0;exitPerimeter=0;entryX=0.5;entryY=0;entryDx=0;entryDy=0;endArrow=block;endFill=1;" parent="1" source="avIDiTlglhun5P4ctQTW-2" target="avIDiTlglhun5P4ctQTW-3" edge="1">
          <mxGeometry relative="1" as="geometry" />
        </mxCell>
        <mxCell id="avIDiTlglhun5P4ctQTW-2" value="start" style="strokeWidth=1;html=1;shape=mxgraph.flowchart.terminator;whiteSpace=wrap;" parent="1" vertex="1">
          <mxGeometry x="310" y="120" width="100" height="40" as="geometry" />
        </mxCell>
        <mxCell id="avIDiTlglhun5P4ctQTW-10" style="edgeStyle=orthogonalEdgeStyle;rounded=0;orthogonalLoop=1;jettySize=auto;html=1;exitX=0.5;exitY=1;exitDx=0;exitDy=0;entryX=0.5;entryY=0;entryDx=0;entryDy=0;endArrow=block;endFill=1;" parent="1" source="avIDiTlglhun5P4ctQTW-3" target="avIDiTlglhun5P4ctQTW-4" edge="1">
          <mxGeometry relative="1" as="geometry" />
        </mxCell>
        <mxCell id="avIDiTlglhun5P4ctQTW-3" value="set percentage&lt;br&gt;initially 0" style="shape=hexagon;perimeter=hexagonPerimeter2;whiteSpace=wrap;html=1;fixedSize=1;" parent="1" vertex="1">
          <mxGeometry x="300" y="200" width="120" height="60" as="geometry" />
        </mxCell>
        <mxCell id="avIDiTlglhun5P4ctQTW-11" style="edgeStyle=orthogonalEdgeStyle;rounded=0;orthogonalLoop=1;jettySize=auto;html=1;exitX=0.5;exitY=1;exitDx=0;exitDy=0;entryX=0.5;entryY=0;entryDx=0;entryDy=0;endArrow=block;endFill=1;" parent="1" source="avIDiTlglhun5P4ctQTW-4" target="avIDiTlglhun5P4ctQTW-5" edge="1">
          <mxGeometry relative="1" as="geometry" />
        </mxCell>
        <mxCell id="avIDiTlglhun5P4ctQTW-4" value="get percentage&lt;div&gt;from keyboard&lt;/div&gt;" style="shape=parallelogram;perimeter=parallelogramPerimeter;whiteSpace=wrap;html=1;fixedSize=1;" parent="1" vertex="1">
          <mxGeometry x="300" y="300" width="120" height="60" as="geometry" />
        </mxCell>
        <mxCell id="9p9NOfnOsH_0SPWEqgHI-17" style="edgeStyle=orthogonalEdgeStyle;rounded=0;orthogonalLoop=1;jettySize=auto;html=1;exitX=1;exitY=0.5;exitDx=0;exitDy=0;entryX=0;entryY=0.5;entryDx=0;entryDy=0;endArrow=block;endFill=1;" parent="1" source="avIDiTlglhun5P4ctQTW-5" target="9p9NOfnOsH_0SPWEqgHI-1" edge="1">
          <mxGeometry relative="1" as="geometry" />
        </mxCell>
        <mxCell id="9p9NOfnOsH_0SPWEqgHI-22" style="edgeStyle=orthogonalEdgeStyle;shape=connector;rounded=0;orthogonalLoop=1;jettySize=auto;html=1;exitX=0.5;exitY=1;exitDx=0;exitDy=0;entryX=0.5;entryY=0;entryDx=0;entryDy=0;strokeColor=default;align=center;verticalAlign=middle;fontFamily=Helvetica;fontSize=11;fontColor=default;labelBackgroundColor=default;endArrow=block;endFill=1;" parent="1" source="avIDiTlglhun5P4ctQTW-5" target="9p9NOfnOsH_0SPWEqgHI-2" edge="1">
          <mxGeometry relative="1" as="geometry" />
        </mxCell>
        <mxCell id="avIDiTlglhun5P4ctQTW-5" value="is percentage&lt;div&gt;&amp;gt;= 70?&lt;/div&gt;" style="rhombus;whiteSpace=wrap;html=1;" parent="1" vertex="1">
          <mxGeometry x="300" y="400" width="120" height="80" as="geometry" />
        </mxCell>
        <mxCell id="avIDiTlglhun5P4ctQTW-6" value="display grade" style="shape=parallelogram;perimeter=parallelogramPerimeter;whiteSpace=wrap;html=1;fixedSize=1;" parent="1" vertex="1">
          <mxGeometry x="300" y="980" width="120" height="60" as="geometry" />
        </mxCell>
        <mxCell id="avIDiTlglhun5P4ctQTW-8" value="end" style="strokeWidth=1;html=1;shape=mxgraph.flowchart.terminator;whiteSpace=wrap;" parent="1" vertex="1">
          <mxGeometry x="310" y="1080" width="100" height="40" as="geometry" />
        </mxCell>
        <mxCell id="YwCEqdf0-yE4EAoYH6hO-1" value="No" style="text;html=1;strokeColor=none;fillColor=none;align=center;verticalAlign=middle;whiteSpace=wrap;rounded=0;" parent="1" vertex="1">
          <mxGeometry x="360" y="480" width="40" height="20" as="geometry" />
        </mxCell>
        <mxCell id="YwCEqdf0-yE4EAoYH6hO-2" value="Yes" style="text;html=1;strokeColor=none;fillColor=none;align=center;verticalAlign=middle;whiteSpace=wrap;rounded=0;" parent="1" vertex="1">
          <mxGeometry x="420" y="420" width="40" height="20" as="geometry" />
        </mxCell>
        <mxCell id="9p9NOfnOsH_0SPWEqgHI-1" value="set grade to&lt;div&gt;A&lt;/div&gt;" style="rounded=0;whiteSpace=wrap;html=1;" parent="1" vertex="1">
          <mxGeometry x="460" y="410" width="120" height="60" as="geometry" />
        </mxCell>
        <mxCell id="9p9NOfnOsH_0SPWEqgHI-19" style="edgeStyle=orthogonalEdgeStyle;shape=connector;rounded=0;orthogonalLoop=1;jettySize=auto;html=1;exitX=0;exitY=0.5;exitDx=0;exitDy=0;entryX=1;entryY=0.5;entryDx=0;entryDy=0;strokeColor=default;align=center;verticalAlign=middle;fontFamily=Helvetica;fontSize=11;fontColor=default;labelBackgroundColor=default;endArrow=block;endFill=1;" parent="1" source="9p9NOfnOsH_0SPWEqgHI-2" target="9p9NOfnOsH_0SPWEqgHI-13" edge="1">
          <mxGeometry relative="1" as="geometry" />
        </mxCell>
        <mxCell id="9p9NOfnOsH_0SPWEqgHI-24" style="edgeStyle=orthogonalEdgeStyle;shape=connector;rounded=0;orthogonalLoop=1;jettySize=auto;html=1;exitX=0.5;exitY=1;exitDx=0;exitDy=0;entryX=0.5;entryY=0;entryDx=0;entryDy=0;strokeColor=default;align=center;verticalAlign=middle;fontFamily=Helvetica;fontSize=11;fontColor=default;labelBackgroundColor=default;endArrow=block;endFill=1;" parent="1" source="9p9NOfnOsH_0SPWEqgHI-2" target="9p9NOfnOsH_0SPWEqgHI-5" edge="1">
          <mxGeometry relative="1" as="geometry" />
        </mxCell>
        <mxCell id="9p9NOfnOsH_0SPWEqgHI-2" value="is percentage&lt;div&gt;&amp;gt;= 60?&lt;/div&gt;" style="rhombus;whiteSpace=wrap;html=1;" parent="1" vertex="1">
          <mxGeometry x="300" y="520" width="120" height="80" as="geometry" />
        </mxCell>
        <mxCell id="9p9NOfnOsH_0SPWEqgHI-3" value="No" style="text;html=1;strokeColor=none;fillColor=none;align=center;verticalAlign=middle;whiteSpace=wrap;rounded=0;" parent="1" vertex="1">
          <mxGeometry x="360" y="600" width="40" height="20" as="geometry" />
        </mxCell>
        <mxCell id="9p9NOfnOsH_0SPWEqgHI-4" value="Yes" style="text;html=1;strokeColor=none;fillColor=none;align=center;verticalAlign=middle;whiteSpace=wrap;rounded=0;" parent="1" vertex="1">
          <mxGeometry x="260" y="540" width="40" height="20" as="geometry" />
        </mxCell>
        <mxCell id="9p9NOfnOsH_0SPWEqgHI-20" style="edgeStyle=orthogonalEdgeStyle;shape=connector;rounded=0;orthogonalLoop=1;jettySize=auto;html=1;exitX=1;exitY=0.5;exitDx=0;exitDy=0;entryX=0;entryY=0.5;entryDx=0;entryDy=0;strokeColor=default;align=center;verticalAlign=middle;fontFamily=Helvetica;fontSize=11;fontColor=default;labelBackgroundColor=default;endArrow=block;endFill=1;" parent="1" source="9p9NOfnOsH_0SPWEqgHI-5" target="9p9NOfnOsH_0SPWEqgHI-15" edge="1">
          <mxGeometry relative="1" as="geometry" />
        </mxCell>
        <mxCell id="9p9NOfnOsH_0SPWEqgHI-26" style="edgeStyle=orthogonalEdgeStyle;shape=connector;rounded=0;orthogonalLoop=1;jettySize=auto;html=1;exitX=0.5;exitY=1;exitDx=0;exitDy=0;entryX=0.5;entryY=0;entryDx=0;entryDy=0;strokeColor=default;align=center;verticalAlign=middle;fontFamily=Helvetica;fontSize=11;fontColor=default;labelBackgroundColor=default;endArrow=block;endFill=1;" parent="1" source="9p9NOfnOsH_0SPWEqgHI-5" target="9p9NOfnOsH_0SPWEqgHI-10" edge="1">
          <mxGeometry relative="1" as="geometry" />
        </mxCell>
        <mxCell id="9p9NOfnOsH_0SPWEqgHI-5" value="is percentage&lt;div&gt;&amp;gt;= 50?&lt;/div&gt;" style="rhombus;whiteSpace=wrap;html=1;" parent="1" vertex="1">
          <mxGeometry x="300" y="640" width="120" height="80" as="geometry" />
        </mxCell>
        <mxCell id="9p9NOfnOsH_0SPWEqgHI-6" value="No" style="text;html=1;strokeColor=none;fillColor=none;align=center;verticalAlign=middle;whiteSpace=wrap;rounded=0;" parent="1" vertex="1">
          <mxGeometry x="360" y="720" width="40" height="20" as="geometry" />
        </mxCell>
        <mxCell id="9p9NOfnOsH_0SPWEqgHI-7" value="Yes" style="text;html=1;strokeColor=none;fillColor=none;align=center;verticalAlign=middle;whiteSpace=wrap;rounded=0;" parent="1" vertex="1">
          <mxGeometry x="420" y="660" width="40" height="20" as="geometry" />
        </mxCell>
        <mxCell id="9p9NOfnOsH_0SPWEqgHI-21" style="edgeStyle=orthogonalEdgeStyle;shape=connector;rounded=0;orthogonalLoop=1;jettySize=auto;html=1;exitX=0;exitY=0.5;exitDx=0;exitDy=0;entryX=1;entryY=0.5;entryDx=0;entryDy=0;strokeColor=default;align=center;verticalAlign=middle;fontFamily=Helvetica;fontSize=11;fontColor=default;labelBackgroundColor=default;endArrow=block;endFill=1;" parent="1" source="9p9NOfnOsH_0SPWEqgHI-10" target="9p9NOfnOsH_0SPWEqgHI-14" edge="1">
          <mxGeometry relative="1" as="geometry" />
        </mxCell>
        <mxCell id="9p9NOfnOsH_0SPWEqgHI-27" style="edgeStyle=orthogonalEdgeStyle;shape=connector;rounded=0;orthogonalLoop=1;jettySize=auto;html=1;exitX=0.5;exitY=1;exitDx=0;exitDy=0;entryX=0.5;entryY=0;entryDx=0;entryDy=0;strokeColor=default;align=center;verticalAlign=middle;fontFamily=Helvetica;fontSize=11;fontColor=default;labelBackgroundColor=default;endArrow=block;endFill=1;" parent="1" source="9p9NOfnOsH_0SPWEqgHI-10" target="9p9NOfnOsH_0SPWEqgHI-16" edge="1">
          <mxGeometry relative="1" as="geometry" />
        </mxCell>
        <mxCell id="9p9NOfnOsH_0SPWEqgHI-10" value="is percentage&lt;div&gt;&amp;gt;= 40?&lt;/div&gt;" style="rhombus;whiteSpace=wrap;html=1;" parent="1" vertex="1">
          <mxGeometry x="300" y="760" width="120" height="80" as="geometry" />
        </mxCell>
        <mxCell id="9p9NOfnOsH_0SPWEqgHI-11" value="No" style="text;html=1;strokeColor=none;fillColor=none;align=center;verticalAlign=middle;whiteSpace=wrap;rounded=0;" parent="1" vertex="1">
          <mxGeometry x="360" y="840" width="40" height="20" as="geometry" />
        </mxCell>
        <mxCell id="9p9NOfnOsH_0SPWEqgHI-12" value="Yes" style="text;html=1;strokeColor=none;fillColor=none;align=center;verticalAlign=middle;whiteSpace=wrap;rounded=0;" parent="1" vertex="1">
          <mxGeometry x="260" y="780" width="40" height="20" as="geometry" />
        </mxCell>
        <mxCell id="9p9NOfnOsH_0SPWEqgHI-13" value="set grade to&lt;div&gt;B&lt;/div&gt;" style="rounded=0;whiteSpace=wrap;html=1;" parent="1" vertex="1">
          <mxGeometry x="140" y="530" width="120" height="60" as="geometry" />
        </mxCell>
        <mxCell id="9p9NOfnOsH_0SPWEqgHI-14" value="set grade to&lt;div&gt;D&lt;/div&gt;" style="rounded=0;whiteSpace=wrap;html=1;" parent="1" vertex="1">
          <mxGeometry x="140" y="770" width="120" height="60" as="geometry" />
        </mxCell>
        <mxCell id="9p9NOfnOsH_0SPWEqgHI-15" value="set grade to&lt;div&gt;C&lt;/div&gt;" style="rounded=0;whiteSpace=wrap;html=1;" parent="1" vertex="1">
          <mxGeometry x="460" y="650" width="120" height="60" as="geometry" />
        </mxCell>
        <mxCell id="9p9NOfnOsH_0SPWEqgHI-28" style="edgeStyle=orthogonalEdgeStyle;shape=connector;rounded=0;orthogonalLoop=1;jettySize=auto;html=1;exitX=0.5;exitY=1;exitDx=0;exitDy=0;entryX=0.5;entryY=0;entryDx=0;entryDy=0;strokeColor=default;align=center;verticalAlign=middle;fontFamily=Helvetica;fontSize=11;fontColor=default;labelBackgroundColor=default;endArrow=block;endFill=1;" parent="1" source="9p9NOfnOsH_0SPWEqgHI-16" target="avIDiTlglhun5P4ctQTW-6" edge="1">
          <mxGeometry relative="1" as="geometry" />
        </mxCell>
        <mxCell id="9p9NOfnOsH_0SPWEqgHI-16" value="set grade to&lt;div&gt;No Award&lt;/div&gt;" style="rounded=0;whiteSpace=wrap;html=1;" parent="1" vertex="1">
          <mxGeometry x="300" y="880" width="120" height="60" as="geometry" />
        </mxCell>
        <mxCell id="9p9NOfnOsH_0SPWEqgHI-29" style="edgeStyle=orthogonalEdgeStyle;shape=connector;rounded=0;orthogonalLoop=1;jettySize=auto;html=1;exitX=0.5;exitY=1;exitDx=0;exitDy=0;entryX=0.5;entryY=0;entryDx=0;entryDy=0;entryPerimeter=0;strokeColor=default;align=center;verticalAlign=middle;fontFamily=Helvetica;fontSize=11;fontColor=default;labelBackgroundColor=default;endArrow=block;endFill=1;" parent="1" source="avIDiTlglhun5P4ctQTW-6" target="avIDiTlglhun5P4ctQTW-8" edge="1">
          <mxGeometry relative="1" as="geometry" />
        </mxCell>
      </root>
    </mxGraphModel>
  </diagram>
</mxfile>
